<?xml version="1.0" standalone="no"?><!DOCTYPE svg PUBLIC "-//W3C//DTD SVG 1.1//EN" "http://www.w3.org/Graphics/SVG/1.1/DTD/svg11.dtd"><svg t="1716057508440" class="icon" viewBox="0 0 1024 1024" version="1.1" xmlns="http://www.w3.org/2000/svg" p-id="25883" xmlns:xlink="http://www.w3.org/1999/xlink" width="200" height="200"><path d="M1001.606394 291.693237 1001.606394 291.693237 441.405179 832.605941C428.198488 845.39541 409.936987 853.258445 389.717751 853.258445 369.498515 853.258445 351.269109 845.39541 338.030323 832.605941L338.030323 832.605941 21.390668 526.878255C8.183977 514.104833 0 496.50126 0 477.020187 0 438.025946 32.687765 406.461472 73.078096 406.461472 93.249191 406.461472 111.510691 414.356602 124.765524 427.130024L124.765524 427.130024 389.717751 682.983595 898.295728 191.928959C911.486373 179.155536 929.76392 171.260406 949.983152 171.260406 990.325345 171.260406 1023.061248 202.82488 1023.061248 241.803074 1023.045205 261.252053 1014.861227 278.951909 1001.606394 291.693237L1001.606394 291.693237Z" fill="#272636" p-id="25884"></path></svg>