<?xml version="1.0" standalone="no"?><!DOCTYPE svg PUBLIC "-//W3C//DTD SVG 1.1//EN" "http://www.w3.org/Graphics/SVG/1.1/DTD/svg11.dtd"><svg t="1716057617309" class="icon" viewBox="0 0 1024 1024" version="1.1" xmlns="http://www.w3.org/2000/svg" p-id="28384" xmlns:xlink="http://www.w3.org/1999/xlink" width="200" height="200"><path d="M525.1 734.5c89.5 0 173.7-34.9 237-98.2s98.2-147.5 98.2-237-34.9-173.7-98.2-237c-63.3-63.3-147.5-98.2-237-98.2s-173.7 34.9-237 98.2c-63.3 63.3-98.2 147.5-98.2 237s34.9 173.7 98.2 237c2.2 2.2 4.5 4.5 6.8 6.6l-162 162c-12.5 12.5-12.5 32.7 0 45.2 6.2 6.2 14.4 9.4 22.6 9.4s16.4-3.1 22.6-9.4l167.6-167.6c53.2 33.9 114.9 52 179.4 52zM253.9 399.4c0-149.6 121.7-271.2 271.2-271.2 149.6 0 271.2 121.7 271.2 271.2 0 149.6-121.7 271.2-271.2 271.2-149.6 0-271.2-121.7-271.2-271.2zM846.2 660L639 867.2l-91.6-91.6-54.2 54.2L612 948.6c7.5 7.5 17.3 11.2 27.1 11.2s19.6-3.7 27.1-11.2l234.4-234.4-54.4-54.2z" p-id="28385" fill="#30c73a"></path></svg>