<?xml version="1.0" standalone="no"?><!DOCTYPE svg PUBLIC "-//W3C//DTD SVG 1.1//EN" "http://www.w3.org/Graphics/SVG/1.1/DTD/svg11.dtd"><svg t="1716057470163" class="icon" viewBox="0 0 1024 1024" version="1.1" xmlns="http://www.w3.org/2000/svg" p-id="24665" xmlns:xlink="http://www.w3.org/1999/xlink" width="200" height="200"><path d="M855.584 128.16H158.88C72.736 128.16 18.176 184.864 18.176 277.664v479.488c0 92.832 54.56 138.688 140.704 138.688h708.48c86.112 0 138.496-45.856 138.496-138.688V277.664c0-92.832-64.128-149.504-150.24-149.504z m66.08 599.872c0 61.536-30.304 79.52-76.384 79.52H184.32c-46.08 0-81.952-9.44-81.952-70.976V314.624c0-57.76 31.776-98.176 81.952-98.176h645.824c52.864 0 91.52 33.76 91.52 89.504V728z" fill="#353534" p-id="24666"></path><path d="M511.84 497.568c6.592 0.064 8.8-2.24 13.184-4.768l286.752-165.568a44.864 44.864 0 1 1 44.864 77.76l-321.536 185.632c-7.36 4.256-15.392 6.176-23.296 6.016a44.544 44.544 0 0 1-23.296-6.016L166.976 404.992a44.896 44.896 0 0 1 44.864-77.76l286.208 165.248c4.576 2.656 7.168 5.024 13.76 5.088z" fill="#898785" p-id="24667"></path></svg>