<?xml version="1.0" standalone="no"?><!DOCTYPE svg PUBLIC "-//W3C//DTD SVG 1.1//EN" "http://www.w3.org/Graphics/SVG/1.1/DTD/svg11.dtd"><svg t="1716057480416" class="icon" viewBox="0 0 1024 1024" version="1.1" xmlns="http://www.w3.org/2000/svg" p-id="24824" xmlns:xlink="http://www.w3.org/1999/xlink" width="200" height="200"><path d="M511.98976 139.958887a30.504648 30.504648 0 0 0 21.780257-9.041828 31.026882 31.026882 0 0 0 9.011108-21.749537V30.791365a30.791365 30.791365 0 0 0-61.58273 0v78.365917a30.832324 30.832324 0 0 0 30.791365 30.801605zM763.829741 243.084871h0.092159a30.586567 30.586567 0 0 0 21.688098-8.939429l55.940547-55.459272a30.791365 30.791365 0 1 0-43.386435-43.703872l-55.940547 55.449032a30.801605 30.801605 0 0 0 21.595938 52.663781zM238.349042 234.124963a30.443208 30.443208 0 0 0 21.565219 8.898468 30.781125 30.781125 0 0 0 21.56522-52.6433l-55.623111-55.408073a30.811844 30.811844 0 1 0-43.417155 43.724352zM155.672129 430.577351h-79.051991a30.786245 30.786245 0 1 0 0 61.572489h79.041751a30.786245 30.786245 0 1 0 0-61.572489zM947.369622 430.577351h-79.041751a30.786245 30.786245 0 1 0 0 61.572489h79.041751a30.786245 30.786245 0 1 0 0-61.572489zM512 228.001505c-156.578237 0-283.983012 127.394535-283.983012 283.993252s127.384296 283.983012 283.972772 283.983012S796.013732 668.583234 796.013732 512.004997c-0.276477-156.342719-127.691492-283.757734-284.013732-284.003492z m222.410523 283.993252c-0.122879 122.520345-99.910657 222.277404-222.431003 222.400283h-7.874479v0.143358c-118.967102-4.188117-214.495084-102.245353-214.536043-222.205724 0-122.612504 99.675139-222.410523 222.256924-222.492442h0.174078c122.540825-0.02048 222.297884 99.6137 222.420762 222.164765zM588.082421 962.427265H435.907339a30.786245 30.786245 0 1 0 0 61.572489h151.929324a30.786245 30.786245 0 0 0 0.245758-61.572489zM638.698223 861.134222H385.281298a30.786245 30.786245 0 1 0 0 61.572489h253.416925a30.786245 30.786245 0 1 0 0-61.572489z" p-id="24825" fill="#2c2c2c"></path></svg>